<svg xmlns="http://www.w3.org/2000/svg" width="94.001" height="74" viewBox="0 0 94.001 74">
  <g id="Group_7236" data-name="Group 7236" transform="translate(0 0)">
    <path id="Subtraction_21" data-name="Subtraction 21" d="M89,74H5a5.006,5.006,0,0,1-5-5V5A5.006,5.006,0,0,1,5,0H89a5.006,5.006,0,0,1,5,5V69A5.006,5.006,0,0,1,89,74ZM6,13V68H89V13H6ZM26,5a2,2,0,0,0-2,2V8a2,2,0,0,0,2,2H87a2,2,0,0,0,2-2V7a2,2,0,0,0-2-2ZM19,6a2,2,0,1,0,2,2A2,2,0,0,0,19,6ZM13,6a2,2,0,1,0,0,4h1a2,2,0,1,0,0-4ZM8,6a2,2,0,1,0,2,2A2,2,0,0,0,8,6Z" fill="#dddfe2"/>
    <g id="Group_7221" data-name="Group 7221" transform="translate(14.002 17.998)">
      <g id="Group_7229" data-name="Group 7229" transform="translate(-142.875)">
        <rect id="Rectangle_9586" data-name="Rectangle 9586" width="66" height="45" transform="translate(142.875)" fill="#005fb8"/>
        <g id="Group_7233" data-name="Group 7233" transform="translate(-13 5)">
          <g id="Group_7230" data-name="Group 7230" transform="translate(188.875 -655)">
            <rect id="Rectangle_9589" data-name="Rectangle 9589" width="28" height="6" transform="translate(0 684)" fill="#00adf1"/>
            <rect id="Rectangle_9588" data-name="Rectangle 9588" width="28" height="6" transform="translate(0 674)" fill="#fff"/>
          </g>
          <rect id="Rectangle_9587" data-name="Rectangle 9587" width="28" height="15" transform="translate(188.875)" fill="#fff" opacity="0.5"/>
        </g>
        <g id="Group_7232" data-name="Group 7232" transform="translate(243.875 602.95) rotate(90)">
          <path id="Path_5525" data-name="Path 5525" d="M6.78,4.28a4.978,4.978,0,0,0-.73,1.76H0A10.977,10.977,0,0,1,2.5,0Z" transform="translate(-591.95 77.977)" fill="#fff"/>
          <g id="Group_6665" data-name="Group 6665" transform="translate(-587.99 74.6)">
            <path id="Path_5526" data-name="Path 5526" d="M6.04,3.4V5.5a4.978,4.978,0,0,0-1.76.73L0,1.95A10.783,10.783,0,0,1,3.49,0Z" fill="#fff"/>
            <path id="Path_5527" data-name="Path 5527" d="M6.04,1.95,1.76,6.23A4.978,4.978,0,0,0,0,5.5V3.4L2.55,0A10.784,10.784,0,0,1,6.04,1.95Z" transform="translate(8.04)" fill="#fff"/>
          </g>
          <path id="Path_5528" data-name="Path 5528" d="M6.78,1.76,2.5,6.04A10.977,10.977,0,0,1,0,0H6.05A4.978,4.978,0,0,0,6.78,1.76Z" transform="translate(-591.95 86.039)" fill="#fff"/>
          <path id="Path_5529" data-name="Path 5529" d="M6.04.73V6.78A10.977,10.977,0,0,1,0,4.28L4.28,0A4.978,4.978,0,0,0,6.04.73Z" transform="translate(-588.015 89.22)" fill="#fff"/>
          <path id="Path_5530" data-name="Path 5530" d="M6.78,6.04H.73A4.978,4.978,0,0,0,0,4.28L4.28,0A10.977,10.977,0,0,1,6.78,6.04Z" transform="translate(-576.73 77.977)" fill="#fff"/>
          <path id="Path_5531" data-name="Path 5531" d="M6.78,0a10.977,10.977,0,0,1-2.5,6.04L0,1.76A4.978,4.978,0,0,0,.73,0Z" transform="translate(-576.73 86.039)" fill="#fff"/>
          <path id="Path_5532" data-name="Path 5532" d="M6.04,4.28A10.977,10.977,0,0,1,0,6.78V.73A4.978,4.978,0,0,0,1.76,0Z" transform="translate(-579.925 89.22)" fill="#fff"/>
          <path id="Path_5533" data-name="Path 5533" d="M2,3,0,0H4Z" transform="translate(-582.95 72)" fill="#fff"/>
        </g>
      </g>
    </g>
  </g>
</svg>
